<?xml version="1.0" encoding="UTF-8" standalone="no"?>
<!-- Created with Inkscape (http://www.inkscape.org/) -->

<svg
   xmlns:dc="http://purl.org/dc/elements/1.1/"
   xmlns:cc="http://creativecommons.org/ns#"
   xmlns:rdf="http://www.w3.org/1999/02/22-rdf-syntax-ns#"
   xmlns:svg="http://www.w3.org/2000/svg"
   xmlns="http://www.w3.org/2000/svg"
   xmlns:sodipodi="http://sodipodi.sourceforge.net/DTD/sodipodi-0.dtd"
   xmlns:inkscape="http://www.inkscape.org/namespaces/inkscape"
   version="1.1"
   id="svg2010"
   width="92"
   height="41"
   viewBox="0 0 92 41"
   sodipodi:docname="Logo копия2.svg"
   inkscape:version="0.92.4 (5da689c313, 2019-01-14)">
  <metadata
     id="metadata2016">
    <rdf:RDF>
      <cc:Work
         rdf:about="">
        <dc:format>image/svg+xml</dc:format>
        <dc:type
           rdf:resource="http://purl.org/dc/dcmitype/StillImage" />
        <dc:title></dc:title>
      </cc:Work>
    </rdf:RDF>
  </metadata>
  <defs
     id="defs2014" />
  <sodipodi:namedview
     pagecolor="#ffffff"
     bordercolor="#666666"
     borderopacity="1"
     objecttolerance="10"
     gridtolerance="10"
     guidetolerance="10"
     inkscape:pageopacity="0"
     inkscape:pageshadow="2"
     inkscape:window-width="1680"
     inkscape:window-height="988"
     id="namedview2012"
     showgrid="false"
     inkscape:zoom="4.4565217"
     inkscape:cx="42.073171"
     inkscape:cy="20.5"
     inkscape:window-x="-8"
     inkscape:window-y="-8"
     inkscape:window-maximized="1"
     inkscape:current-layer="svg2010" />
  <path
     style="fill:#131313"
     d="M 12.5,39.104137 C -1.0306632,32.839644 -4.0373325,15.800215 6.6239011,5.8030477 17.018602,-3.9441873 33.018045,-0.64533529 39.104137,12.5 46.656197,28.81168 28.81168,46.656197 12.5,39.104137 Z M 28.030039,35.75 C 35.742749,31.853658 39.416297,23.670543 37.029297,15.703449 34.645189,7.7460057 25.57162,1.9138937 17.846461,3.3735217 0.95992332,6.5641437 -2.0818108,29.06246 13.421401,36.103669 18.832711,38.561363 22.647846,38.469001 28.030039,35.75 Z M 15,26 c -2.652393,-2.652393 -2.652393,-8.347607 0,-11 2.652393,-2.652393 8.347607,-2.652393 11,0 2.652393,2.652393 2.652393,8.347607 0,11 -1.238095,1.238095 -3.333333,2 -5.5,2 -2.166667,0 -4.261905,-0.761905 -5.5,-2 z m 8.8,-2.2 c 1.542501,-1.542501 1.542501,-5.057499 0,-6.6 -2.804997,-2.804997 -7.8,-0.691727 -7.8,3.3 0,1.155 0.54,2.64 1.2,3.3 0.66,0.66 2.145,1.2 3.3,1.2 1.155,0 2.64,-0.54 3.3,-1.2 z m 27.440898,-2.55 c 0.290534,-6.447545 2.503067,-9.502166 5.115212,-7.062057 1.091447,1.019564 1.118839,1.496708 0.132001,2.299301 C 55.803224,17.04426 54.99151,19.1875 54.684301,21.25 54.250671,24.161262 54.460374,25 55.621888,25 c 0.82288,0 1.218031,0.45 0.878112,1 -0.339919,0.55 -1.720572,1 -3.068119,1 -2.346087,0 -2.439088,-0.24407 -2.190983,-5.75 z m 7.427054,5.084618 C 58.300578,25.967245 58,24.371212 58,22.787879 c 0,-3.883205 4.065611,-7.890804 7.722524,-7.612332 2.69952,0.205567 2.772963,0.367459 2.61669,5.767978 L 68.178428,26.5 63.757166,26.751285 c -2.431695,0.138207 -4.721841,-0.04929 -5.089214,-0.416667 z m 5.725059,-2.916405 C 64.726855,22.548229 65,20.468129 65,18.795768 c 0,-2.494844 -0.251646,-2.83181 -1.401887,-1.877195 -1.643586,1.364056 -2.918406,5.754166 -2.06969,7.127416 0.886157,1.433833 2.182491,1.149741 2.864588,-0.627776 z M 70.50916,24.75 c 0.300995,-1.2375 0.647068,-4.828185 0.769052,-7.9793 0.142915,-3.691838 0.698407,-5.915626 1.56203,-6.253245 2.343818,-0.9162743 2.871875,0.290219 2.165164,4.946923 -0.769173,5.068282 0.13383,5.778947 2.586551,2.035622 0.900935,-1.375 2.036308,-2.5 2.523053,-2.5 1.629133,0 0.907625,2.968916 -1.012998,4.168365 -1.559324,0.973814 -1.709116,1.599842 -0.839485,3.508474 C 79.747837,25.936739 82,25.633922 82,22.174314 82,18.236427 86.05394,14.545738 89.444637,15.396749 90.850087,15.749494 92,16.672388 92,17.447623 92,19.273574 89.262164,22 87.428571,22 c -1.444365,0 -1.960325,2.134912 -0.797088,3.29815 0.347316,0.347315 1.472316,0.181482 2.5,-0.368518 C 90.386353,24.258046 91,24.263344 91,24.945762 c 0,1.547369 -5.078607,2.486238 -6.990407,1.2923 -1.025901,-0.640686 -2.242086,-0.704105 -3.09907,-0.161602 -2.390552,1.513307 -3.78563,1.036013 -5.338548,-1.826462 l -1.4919,-2.75 -0.04004,2.75 c -0.03026,2.078763 -0.532858,2.75 -2.059087,2.75 -1.589317,0 -1.902572,-0.47889 -1.471788,-2.25 z M 88.549226,17.079649 C 87.543152,15.451788 86,16.779697 86,19.273303 c 0,1.985831 0.127225,2.028043 1.618324,0.536944 0.890079,-0.890078 1.308985,-2.118847 0.930902,-2.730598 z"
     id="path2563"
     inkscape:connector-curvature="0" />
</svg>
